# xmcd CD database file
#
# Track frame offsets:
#	150
#	17965
#	33550
#	51350
#
# Disc length: 924 seconds
#
# Revision: 2
# Processed by: cddbd v1.5.1PL0 Copyright (c) Steve Scherf et al.
# Submitted via: CDex 1.51
#
DISCID=31039a04
DTITLE=Lloyd Cole - Baby
DYEAR=1995
DGENRE=Rock
TTITLE0=Baby
TTITLE1=The Steady Slowing Down Of The Heart
TTITLE2=Baby (Original Demo)
TTITLE3=Like Lovers Do (Stephen Street Mix)
EXTD=YEAR: 1995
EXTT0=
EXTT1=
EXTT2=
EXTT3=
PLAYORDER=
